<svg width="54" height="53" viewBox="0 0 54 53" fill="none" xmlns="http://www.w3.org/2000/svg">
    <path d="M38.1375 0C24.6375 4.09735 11.9571 9.33684 6.58855 20.9576C5.23193 24.1733 5.10278 28.1405 7.63521 30.5457C13.3204 35.3624 24.1349 32.9504 30.5499 30.3753C33.651 29.0942 41.0737 24.5061 39.8398 20.5389C39.0904 18.7286 36.9452 17.905 35.0072 17.8135C33.9155 17.7351 32.7851 17.8661 31.6483 18.0752C33.6445 16.9576 36.0736 16.2319 38.6512 16.8855C43.7354 18.4541 43.7936 23.5131 41.0738 27.3627C38.2442 31.5391 33.9352 34.5588 29.3096 36.3431C21.3698 39.3561 10.6387 41.1077 3.64859 34.794C-0.712069 30.7875 -0.87985 23.637 1.64613 18.709C8.39846 6.17978 24.3 1.36578 38.1375 0Z" fill="currentColor"/>
    <path d="M43.3476 7.51943C33.6701 5.2712 22.7588 9.11431 15.4715 15.4997C12.6355 18.114 9.31461 22.6239 11.9051 26.552C14.5345 29.8918 19.3995 28.9963 22.4681 27.3166C17.61 28.5127 10.2382 26.3558 15.7037 20.7022C21.7248 14.9833 33.9093 11.1208 41.9072 13.1796C47.9152 14.6698 49.6656 19.637 47.4692 25.7414C46.0802 29.4734 43.3539 32.8524 40.0139 35.519C33.082 41.0876 23.9343 43.5453 15.187 44.689H15.1744C22.275 45.4122 29.025 44.689 34.9958 42.8617L39.142 52.4012L52.4533 27.8164C53.6694 24.9555 54.2601 21.8337 53.8911 18.7153C53.3354 12.9573 48.7031 8.75469 43.3476 7.51943Z" fill="currentColor"/>
</svg>