<svg xmlns="http://www.w3.org/2000/svg" viewBox="0 0 600 400" width="100%">
  <defs>
    <linearGradient id="bg-grad" x1="0%" y1="0%" x2="100%" y2="100%">
      <stop offset="0%" stop-color="#f4f8fd" />
      <stop offset="50%" stop-color="#eaf1fb" />
      <stop offset="100%" stop-color="#e2ebf7" />
    </linearGradient>
    <linearGradient id="state-grad" x1="0%" y1="0%" x2="0%" y2="100%">
      <stop offset="0%" stop-color="#e8f0fc" />
      <stop offset="100%" stop-color="#d4e3f7" />
    </linearGradient>
    <marker id="arrow" markerWidth="6" markerHeight="6" refX="5" refY="3" orient="auto">
      <path d="M0,0 L6,3 L0,6 Z" fill="#8b90a8" />
    </marker>
  </defs>

  <rect width="100%" height="100%" fill="url(#bg-grad)" rx="10" />

  <rect x="180" y="40" width="240" height="210" fill="rgba(200,215,240,0.15)" stroke="#c0c8d4" stroke-width="1.5" stroke-dasharray="6 4" rx="8" />
  <text x="195" y="60" font-family="Inter,sans-serif" font-size="11px" fill="#8b90a8" font-weight="600" text-transform="uppercase">DBHUB</text>

  <path d="M 300 130 C 300 150, 300 150, 300 170" fill="none" stroke="#8b90a8" stroke-width="1.5" stroke-linecap="round" marker-end="url(#arrow)" />
  <path d="M 260 220 C 260 265, 130 265, 130 310" fill="none" stroke="#8b90a8" stroke-width="1.5" stroke-linecap="round" marker-end="url(#arrow)" />
  <path d="M 300 220 C 300 265, 300 265, 300 310" fill="none" stroke="#8b90a8" stroke-width="1.5" stroke-linecap="round" marker-end="url(#arrow)" />
  <path d="M 340 220 C 340 265, 470 265, 470 310" fill="none" stroke="#8b90a8" stroke-width="1.5" stroke-linecap="round" marker-end="url(#arrow)" />

  <rect x="210" y="80" width="180" height="50" fill="url(#state-grad)" stroke="#bcc8da" stroke-width="1.5" rx="8" />
  <text x="300" y="102" font-family="&quot;SF Mono&quot;,&quot;Fira Code&quot;,Consolas,monospace" font-size="13px" fill="#1a1a2e" text-anchor="middle">IDbShardResolver</text>
  <text x="300" y="118" font-family="Inter,-apple-system,sans-serif" font-size="11px" fill="#6b7084" font-style="italic" text-anchor="middle">Routes requests to shards</text>

  <rect x="210" y="170" width="180" height="50" fill="url(#state-grad)" stroke="#bcc8da" stroke-width="1.5" rx="8" />
  <text x="300" y="192" font-family="&quot;SF Mono&quot;,&quot;Fira Code&quot;,Consolas,monospace" font-size="13px" fill="#1a1a2e" text-anchor="middle">IDbShardRegistry</text>
  <text x="300" y="208" font-family="Inter,-apple-system,sans-serif" font-size="11px" fill="#6b7084" font-style="italic" text-anchor="middle">Tracks available shards</text>

  <rect x="60" y="310" width="140" height="40" fill="url(#state-grad)" stroke="#bcc8da" stroke-width="1.5" rx="8" />
  <text x="130" y="335" font-family="&quot;SF Mono&quot;,&quot;Fira Code&quot;,Consolas,monospace" font-size="13px" fill="#1a1a2e" text-anchor="middle">Shard 'tenant0'</text>

  <rect x="230" y="310" width="140" height="40" fill="url(#state-grad)" stroke="#bcc8da" stroke-width="1.5" rx="8" />
  <text x="300" y="335" font-family="&quot;SF Mono&quot;,&quot;Fira Code&quot;,Consolas,monospace" font-size="13px" fill="#1a1a2e" text-anchor="middle">Shard 'tenant1'</text>

  <rect x="400" y="310" width="140" height="40" fill="url(#state-grad)" stroke="#bcc8da" stroke-width="1.5" rx="8" />
  <text x="470" y="335" font-family="&quot;SF Mono&quot;,&quot;Fira Code&quot;,Consolas,monospace" font-size="13px" fill="#1a1a2e" text-anchor="middle">Shard 'tenant2'</text>
</svg>